<svg enable-background="new 0 0 800 800" height="800px" id="Layer_1" version="1.1" viewBox="0 0 800 800" width="800px" xml:space="preserve" xmlns="http://www.w3.org/2000/svg" xmlns:xlink="http://www.w3.org/1999/xlink"><g><path d="M451.236,251.269h-47.912c-22.686,0-41.143,18.457-41.143,41.142v153.177   c0,22.686,18.457,41.143,41.143,41.143h47.912c22.686,0,41.143-18.457,41.143-41.143V292.411   C492.379,269.726,473.922,251.269,451.236,251.269z M466.342,445.588c0,8.33-6.775,15.104-15.105,15.104h-47.912   c-8.33,0-15.105-6.773-15.105-15.104V292.411c0-8.329,6.775-15.104,15.105-15.104h47.912c8.33,0,15.105,6.775,15.105,15.104   V445.588z" fill="#D84343"/><path d="M280.5,252.45H138.853c-24.53,0-44.487,19.957-44.487,44.488v1.537c0,24.53,19.957,44.488,44.487,44.488   H280.5c24.53,0,44.487-19.958,44.487-44.488v-1.537C324.988,272.407,305.031,252.45,280.5,252.45z M298.95,298.474   c0,10.175-8.274,18.45-18.449,18.45H138.853c-10.174,0-18.449-8.275-18.449-18.45v-1.537c0-10.175,8.275-18.45,18.449-18.45H280.5   c10.175,0,18.449,8.275,18.449,18.45V298.474z" fill="#D84343"/><path d="M755.232,462.613c0-7.188-5.826-13.019-13.02-13.019c-7.184,0-13.018,5.83-13.018,13.019v49.719H547.861   c9.395-11.725,15.051-26.568,15.051-42.725V261.433c0-37.768-30.725-68.495-68.492-68.495H115.743   c-37.768,0-68.495,30.728-68.495,68.495v208.174c0,37.766,30.728,68.494,68.495,68.494h13.814h26.339   c-0.497-2.357-0.777-4.791-0.777-7.295c0-6.9,2.067-13.295,5.5-18.742c6.263-9.932,17.254-16.594,29.837-16.594   c12.583,0,23.575,6.662,29.837,16.594c3.433,5.447,5.5,11.842,5.5,18.742c0,2.504-0.28,4.938-0.777,7.295h26.339h19.55h26.34   c-0.498-2.357-0.777-4.791-0.777-7.295c0-6.9,2.066-13.295,5.5-18.742c6.262-9.932,17.254-16.594,29.837-16.594   s23.575,6.662,29.838,16.594c3.433,5.447,5.5,11.842,5.5,18.742c0,2.504-0.28,4.938-0.777,7.295h26.339h48.054   c0.855,0.174,1.734,0.27,2.639,0.27H669.68v17.236c0,7.188,5.834,13.018,13.02,13.018c7.191,0,13.018-5.83,13.018-13.018v-17.236   h45.262c5.057,0,9.395-2.922,11.551-7.139c1.672-2.189,2.703-4.893,2.703-7.865V462.613z M390.228,512.064   c-7.944-24.699-31.12-42.633-58.422-42.633c-27.302,0-50.478,17.934-58.422,42.633h-24.505   c-7.944-24.699-31.12-42.633-58.422-42.633s-50.478,17.934-58.422,42.633h-16.292c-23.412,0-42.457-19.047-42.457-42.457V261.433   c0-23.412,19.045-42.457,42.457-42.457H494.42c23.408,0,42.453,19.045,42.453,42.457v208.174c0,23.41-19.045,42.457-42.453,42.457   H390.228z" fill="#D84343"/><circle cx="190.581" cy="531.807" fill="#D84343" r="23.557"/><circle cx="331.93" cy="531.807" fill="#D84343" r="23.557"/><path d="M413.641,357.47c-7.396,0-13.394,5.997-13.394,13.389c0,7.393,5.998,13.39,13.394,13.39   c7.392,0,13.389-5.997,13.389-13.39C427.029,363.467,421.032,357.47,413.641,357.47z" fill="#D84343"/><path d="M635.584,581.023H57.786c-7.189,0-13.019,5.83-13.019,13.02c0,7.188,5.83,13.02,13.019,13.02h577.798   c7.186,0,13.02-5.832,13.02-13.02C648.604,586.854,642.77,581.023,635.584,581.023z" fill="#D84343"/><path d="M717.418,581.023h-37.197c-7.186,0-13.02,5.83-13.02,13.02c0,7.188,5.834,13.02,13.02,13.02h37.197   c7.186,0,13.02-5.832,13.02-13.02C730.438,586.854,724.604,581.023,717.418,581.023z" fill="#D84343"/></g></svg>